<?xml version="1.0" encoding="utf-8"?>
<!-- Generator: Adobe Illustrator 26.4.0, SVG Export Plug-In . SVG Version: 6.00 Build 0)  -->
<svg version="1.1" id="Layer_1" xmlns="http://www.w3.org/2000/svg" xmlns:xlink="http://www.w3.org/1999/xlink" x="0px" y="0px"
	 viewBox="0 0 600 425.5" style="enable-background:new 0 0 600 425.5;" xml:space="preserve">
<style type="text/css">
	.st0{fill:#E4E8EA;}
	.st1{fill:#E4E8EA;stroke:#1D1D1B;stroke-width:0.6594;stroke-miterlimit:10;}
	.st2{fill:#E4E8EA;stroke:#1D1D1B;stroke-width:0.4707;stroke-miterlimit:10;}
	.st3{fill:#F5F5F6;}
	.st4{fill:#507690;}
	.st5{fill:#9BB1BF;}
	.st6{fill:#FFFFFF;}
	.st7{clip-path:url(#SVGID_00000018944364048968981730000006405379072818172321_);fill:#996A49;}
	.st8{clip-path:url(#SVGID_00000018944364048968981730000006405379072818172321_);fill:#D19F6B;}
	.st9{clip-path:url(#SVGID_00000018944364048968981730000006405379072818172321_);}
	.st10{fill:#A8BC45;}
	.st11{fill:#233E57;}
	.st12{opacity:0.7;fill:#FFFFFF;}
	.st13{fill:none;stroke:#A8BC45;stroke-width:3.7663;stroke-miterlimit:10;}
	.st14{fill:none;stroke:#000000;stroke-width:3.7483;stroke-miterlimit:10;}
	.st15{fill:#D19F6B;}
	.st16{fill:#996A49;}
	.st17{clip-path:url(#SVGID_00000018944364048968981730000006405379072818172321_);fill:#A8BC45;}
	.st18{opacity:0.8;fill:#ACD9EA;}
	.st19{fill:#F1933E;}
	.st20{fill:#CB8D50;}
	.st21{fill:#B05B29;}
	.st22{fill:#553119;}
	.st23{fill:#CE0B24;}
	.st24{fill:#FAC82E;}
	.st25{fill:#D3D8DD;}
	.st26{fill:#3D6092;}
	.st27{fill:#6390B5;}
	.st28{fill:#00A3A6;}
	.st29{fill:#99B1BC;}
	.st30{fill:none;}
	.st31{fill-rule:evenodd;clip-rule:evenodd;fill:#3D6092;}
	.st32{fill:#A6BFD5;}
	.st33{fill:#707071;}
	.st34{fill:#5EA77D;}
	.st35{fill:#198145;}
	.st36{fill:#E9ECEE;}
	.st37{fill:#657889;}
	.st38{fill:#7890B3;}
	.st39{fill:#043C55;}
	.st40{fill:#B2BFD3;}
	.st41{fill:#ADECE2;}
	.st42{opacity:0.7;fill:#99B1BC;}
	.st43{fill:#BBBBBD;}
	.st44{fill:#1D8B7B;}
	.st45{fill:#31CFB6;}
	.st46{fill:#E2E2E3;}
	.st47{fill:#886F5E;}
	.st48{fill:none;stroke:#99B1BC;stroke-width:6;stroke-linecap:round;stroke-linejoin:round;stroke-miterlimit:10;}
	.st49{fill:#30A1CA;}
	.st50{fill:#BBADA3;}
	.st51{clip-path:url(#SVGID_00000140696350112504542100000011409229703039738542_);}
	.st52{fill-rule:evenodd;clip-rule:evenodd;fill:#BBADA3;}
	.st53{clip-path:url(#SVGID_00000140696350112504542100000011409229703039738542_);fill:#1D8B7B;}
	.st54{fill:#353538;}
	.st55{fill:none;stroke:#353538;stroke-width:14.48;stroke-miterlimit:10;}
	.st56{fill:#EBEFF4;}
	.st57{fill:#A7B2BC;}
	.st58{fill:#F0BFA1;}
	.st59{fill:#F4D3BD;}
	.st60{fill:#DBB084;}
	.st61{fill:#222222;}
	.st62{fill:#864C2F;}
	.st63{clip-path:url(#SVGID_00000049181789429182369820000007070793231501612450_);fill:#CB8D50;}
	.st64{fill-rule:evenodd;clip-rule:evenodd;fill:#F4D3BD;}
	.st65{clip-path:url(#SVGID_00000016033929668856918110000012449098978467160460_);fill:#CB8D50;}
	.st66{fill:#EFEFEF;}
	.st67{fill:#D2DEDE;}
	.st68{fill:#BAD4DB;}
	.st69{fill:url(#SVGID_00000054946611781615681720000001662127175529210537_);}
	.st70{fill:#B1D2DE;}
	.st71{opacity:0.2;fill:#E2E2E3;}
	.st72{opacity:0.2;fill:#BBBBBD;}
	.st73{fill:#FBD86D;}
	.st74{fill:#FDE9AB;}
	.st75{fill:#D6ECF4;}
	.st76{fill:#BAC96A;}
	.st77{fill:none;stroke:#C2D07D;stroke-width:2.1053;stroke-linecap:round;stroke-miterlimit:10;}
	.st78{fill:#FCDE81;}
	.st79{fill:url(#SVGID_00000155841519860738315180000006105147700195876483_);}
	.st80{fill:#1D1D1B;}
	.st81{fill:none;stroke:#1D8B7B;stroke-width:4.2858;stroke-linecap:round;stroke-miterlimit:10;}
	.st82{fill:#BFC028;}
	.st83{fill:#83C6DF;}
	.st84{fill:none;stroke:#1D1D1B;stroke-width:1.5288;stroke-linecap:round;stroke-linejoin:round;stroke-miterlimit:10;}
	.st85{fill:#1899C5;}
	.st86{fill:#6FBDDA;}
	.st87{fill:#6FBDDA;stroke:#30A1CA;stroke-width:1.0192;stroke-linecap:round;stroke-linejoin:round;stroke-miterlimit:10;}
	.st88{fill:#998375;}
	.st89{fill:#AA988C;}
	.st90{fill:#BBBABC;}
	.st91{fill:#CECECF;}
	.st92{fill-rule:evenodd;clip-rule:evenodd;fill:#AA988C;}
	.st93{fill:#C2D07D;}
	.st94{clip-path:url(#SVGID_00000111155706707066450530000009513981042791824809_);fill:#507690;}
	.st95{fill:url(#SVGID_00000064346024917526901910000007440855304726723248_);}
	.st96{fill:#053C60;}
	.st97{fill:#02292A;}
	.st98{fill:#EDF8F8;}
	.st99{fill:#231717;}
	.st100{fill:#DAF0F1;}
	.st101{opacity:0.4;fill:url(#SVGID_00000108304624909072969320000014726398849427645594_);}
	.st102{fill:#D1EDED;}
	.st103{fill:#075253;}
	.st104{clip-path:url(#SVGID_00000021834783205226601890000002631707855793221020_);}
	.st105{clip-path:url(#SVGID_00000021834783205226601890000002631707855793221020_);fill:#DAF0F1;}
	
		.st106{opacity:0.4;clip-path:url(#SVGID_00000021834783205226601890000002631707855793221020_);fill:url(#SVGID_00000160905160404285404820000010377988543465702301_);}
	.st107{clip-path:url(#SVGID_00000021834783205226601890000002631707855793221020_);fill:#075253;}
	.st108{clip-path:url(#SVGID_00000021834783205226601890000002631707855793221020_);fill:#F1933E;}
	.st109{clip-path:url(#SVGID_00000005246472870734876790000017234040547205171354_);}
	.st110{clip-path:url(#SVGID_00000094619178063981317180000012694084397540664744_);fill:#DAF0F1;}
	.st111{fill:#107A7C;}
	.st112{fill:#414042;}
	.st113{fill:#666666;}
	.st114{clip-path:url(#SVGID_00000075154601721349018120000005575034448875222444_);fill:#507690;}
	.st115{fill:url(#SVGID_00000115505547318020312050000011814123925093733308_);}
	.st116{opacity:0.4;fill:url(#SVGID_00000026845502338281370170000005606695780245181350_);}
	.st117{clip-path:url(#SVGID_00000176026032143979993290000002328617619040768929_);}
	.st118{clip-path:url(#SVGID_00000176026032143979993290000002328617619040768929_);fill:#DAF0F1;}
	
		.st119{opacity:0.4;clip-path:url(#SVGID_00000176026032143979993290000002328617619040768929_);fill:url(#SVGID_00000060010530535262095470000002685527243396658832_);}
	.st120{clip-path:url(#SVGID_00000176026032143979993290000002328617619040768929_);fill:#075253;}
	.st121{clip-path:url(#SVGID_00000176026032143979993290000002328617619040768929_);fill:#F1933E;}
	.st122{clip-path:url(#SVGID_00000039120017001453960570000010189405844052023484_);}
	.st123{clip-path:url(#SVGID_00000143589729700709875230000006597363395361264267_);fill:#DAF0F1;}
	.st124{clip-path:url(#SVGID_00000126298865518858021100000006957195376800244645_);fill:#996A49;}
	.st125{clip-path:url(#SVGID_00000126298865518858021100000006957195376800244645_);fill:#D19F6B;}
	.st126{clip-path:url(#SVGID_00000126298865518858021100000006957195376800244645_);}
	.st127{clip-path:url(#SVGID_00000126298865518858021100000006957195376800244645_);fill:#A8BC45;}
</style>
<g>
	<path class="st0" d="M589.8,278.2c-2.3-2.1-4.8-3.9-6.4-7.2c-0.5-1-1-1.9-1.5-2.8c-4.1-17.7-20.6-31.9-37.8-41.6
		c-21.2-11.9-41.9-18.2-66.1-14.6c-19.4,2.9-32.6,14.8-39.7,32.1c-9.9,23.9-9.6,54.4,6.8,75.6c5.7,7.4,9.6,13.6,19.2,16.5
		c6.7,2,13.8,2.2,20.8,2.3c9.7,0.2,15.8-1.6,19.5-10.8c4.1-0.4,8.1-1.5,12-2.8c17.9,3.6,39.7,2.5,54.7-7c4.1-2.6,8.1-5.6,11.9-8.7
		c3.9-3.2,7.3-7.3,9.9-12.3C596.4,290.3,594.7,282.6,589.8,278.2z"/>
	<path class="st0" d="M510,414.6c-2.5,0-4.5-2-4.5-4.5V291.3c0-2.5,2-4.5,4.5-4.5s4.5,2,4.5,4.5v118.9
		C514.5,412.6,512.5,414.6,510,414.6z"/>
	<path class="st0" d="M514.9,356c-0.1,0.4-0.3,0.8-0.4,1.2c-0.4,1.3-0.7,2.6-1.1,3.8c-0.2,0.5-0.3,0.9-0.5,1.4
		c-0.3,0.5-0.5,1-0.8,1.6c-2.2-0.9-4.4-1.8-6.6-2.7c0.5-1.1,1-2.1,1.5-3.2c0.6-1.4,1.1-2.8,1.6-4.2c0.2-0.4,0.4-0.9,0.7-1.3
		c0.5-0.8,1-1.6,1.4-2.4c0.2-0.4,0.4-0.7,0.6-1.1c0.6-0.9,1.3-1.8,1.9-2.8c0.8-1.5,1.6-3,2.3-4.5c0.1-0.2,0.2-0.4,0.3-0.6
		c0.6-1,1.2-1.9,1.7-2.9c0.1-0.3,0.3-0.6,0.4-0.9c0.5-0.9,1-1.7,1.5-2.6c0.2-0.4,0.5-0.9,0.7-1.3c0.5-0.9,1-1.7,1.5-2.6
		c0.1-0.3,0.3-0.6,0.4-0.9c0.6-1.1,1.2-2.2,1.8-3.3c0.1-0.2,0.2-0.4,0.3-0.7c0.6-1.1,1.2-2.2,1.8-3.3c0.1-0.2,0.2-0.4,0.3-0.6
		c0.1-0.1,0.2-0.2,0.4-0.3c1.4,0.3,2.9,0.6,4.3,1c-0.6,1.1-1.3,2.1-1.9,3.2c-1.2,2.4-2.4,4.9-3.5,7.3c-0.6,1.2-1.1,2.3-1.6,3.5
		c0.1,0.1,0.2,0.1,0.3,0.2c0.4-0.3,0.8-0.6,1.2-0.9c1-0.9,2.1-1.7,3.1-2.6c3.3-2.9,6.6-5.8,9.9-8.7c0.3-0.2,0.3-0.8,0.4-1.2
		c1,0,1.9,0.1,2.9,0.1c-0.1,0.2-0.2,0.4-0.3,0.7c-0.7,0.8-1.4,1.6-2.1,2.3c-0.1,0.1-0.1,0.2-0.2,0.3c-1.4,1.4-2.7,2.9-4.1,4.3
		c-0.1,0.1-0.2,0.2-0.2,0.3c-0.3,0.2-0.6,0.3-0.9,0.6c-2.6,2.5-5.2,5-7.7,7.5c-1.7,1.7-3.3,3.4-5,5.1c-0.1,0.1-0.1,0.2-0.2,0.3
		c-0.5,0.5-1,0.9-1.5,1.4c-0.1,0.2-0.2,0.3-0.3,0.5c-0.9,1.7-1.8,3.5-2.7,5.2c-0.2,0.4-0.4,0.9-0.6,1.3
		C515.6,354.4,515.2,355.2,514.9,356z"/>
</g>
<g>
	<path class="st0" d="M40.6,270.7c1.9-1.9,4-3.6,5.3-6.6c0.4-0.9,0.8-1.8,1.3-2.5c3.4-16.3,17.1-29.5,31.4-38.4
		c17.6-11,34.9-16.8,55-13.5c16.1,2.7,27.1,13.6,33.1,29.6c8.2,22,8,50.2-5.7,69.7c-4.8,6.8-8,12.6-16,15.2
		c-5.6,1.8-11.5,2-17.3,2.1c-8.1,0.2-13.1-1.5-16.2-9.9c-3.4-0.4-6.7-1.4-10-2.5c-14.9,3.3-33,2.3-45.5-6.5c-3.4-2.4-6.7-5.1-9.9-8
		c-3.3-3-6.1-6.7-8.2-11.4C35,281.9,36.5,274.8,40.6,270.7z"/>
	<path class="st0" d="M108.6,411.8c-2,0-3.7-1.8-3.7-4.1V297.9c0-2.3,1.7-4.1,3.7-4.1c2,0,3.7,1.8,3.7,4.1v109.7
		C112.3,409.9,110.6,411.8,108.6,411.8z"/>
	<path class="st0" d="M71.9,330.6c1.6-0.8,3.3-1.7,4.9-2.5c6.1,4.9,12.3,9.7,18.4,14.6c-4,2-8,4-12.1,5.9c-3.7-1-7.3-1.9-11-2.9
		c-0.7-0.2-1.4-0.5-2.1-0.7c0.7-1.1,1.3-2.3,2-3.4c3,0.2,5.9,0.5,8.9,0.7c0.8,0.1,1.6,0.1,2.4,0.2c0.1-0.2,0.2-0.4,0.3-0.6
		C79.7,338.1,75.8,334.4,71.9,330.6z"/>
	<path class="st0" d="M108.4,357.1l1.5-5.2c0,0-3,0-5.1-0.6c-1.1-0.4-3.6-1.7-5.6-2.7l-4-5.9l-15.3,4.9l31.1,12.1L108.4,357.1z"/>
	<path class="st0" d="M23.6,298.4c3.2-3.1,6.8-5.9,11.1-7.9c5.6-2.6,11.4-3.6,17.5-3c7.5,0.8,14.3,3.7,20.9,7.3
		c4,2.2,7.9,4.6,11.3,7.6c2.2,1.9,4,4.1,5,7c0.8,2.5,2.7,4,4.4,5.7c3.6,3.6,3.9,9.2,0.1,13.4c-2.9,3.3-6.4,5.8-10.3,7.7
		c-3.7,1.8-7.6,3.5-11.5,4.9c-15.3,5.6-35.9,3.6-51.1-1.5c-2.1-0.7-4.2-1.5-6-2.7c-2.2-1.4-4.2-3.2-6.1-5.1
		c-2.6-2.6-3.2-5.9-2.2-9.4c1.2-4.3,3.1-8.4,6.1-11.9C16.4,306.4,19.8,302.2,23.6,298.4z"/>
</g>
<g>
	<path class="st56" d="M370.2,75.8H217.5l58.3-57.1c6.7-6.6,29.5-6.6,36.2,0L370.2,75.8z"/>
	<polygon class="st56" points="458.7,152.2 458.7,235.2 132.2,235.2 132.2,153.5 206,78.6 386.3,78.6 436.1,129.3 452.8,146.3 	"/>
	<rect x="141.2" y="232.2" class="st11" width="315.2" height="10.5"/>
	<rect x="141.2" y="243" class="st56" width="315.2" height="157.6"/>
	<g>
		<path class="st34" d="M280.2,362c3.2-2.2,4.2-5.6,3.9-7.5c-0.5-2.9-2.8-4.2-2.5-7.4c0.2-2.1,1.5-5.7,1-7.4
			c-1.3-4.7-3.2-4.4-4.2-7.6c-0.8-2.5,0.2-5.9-1.3-9.4c-1.4-3.1-4.8-5.5-10-3.9c-3.9,1.1-4,7.2-2.6,10.9c1.4,3.7,3.2,3.3,2.8,5.6
			c-0.5,2.3-1.5,6.2-0.2,9.3c1.5,3.6,4.7,4.6,5.5,6.1c0.7,1.5-1.2,4.2-0.2,7C273.2,360.6,275.8,365,280.2,362z"/>
		<g>
			<path class="st35" d="M278.3,383.4l-0.6,0c2.5-33.8-7.8-60.2-7.9-60.4l0.5-0.2C270.5,322.9,280.8,349.4,278.3,383.4z"/>
		</g>
		<path class="st10" d="M281.9,374.5c3.5,0,4.5-2.7,5.2-4.3c1.1-2.6,0-5,1.7-7.4c1.2-1.6,4.1-3.8,4.4-5.5c0.6-3.2-1.5-4.3-0.7-7.5
			c0.6-2.4,5.8-5.9,6.3-9.5c0.5-3.3-0.5-6.8-5.3-8.4c-3.5-1.2-8.4,3.5-9.2,7.3c-0.8,3.8,0.8,4.5-0.7,6.1c-1.5,1.6-4.2,4.2-4.7,7.4
			c-0.6,3.8,1.3,6.4,1.1,8c-0.2,1.6-2.2,3.2-2.9,6C276.7,369.4,277.1,374.5,281.9,374.5z"/>
		<path class="st10" d="M273.7,378.7c-3.2-0.2-4.1-2.7-4.6-4.3c-0.9-2.5,0.3-4.6-1.2-7c-1-1.5-3.6-3.7-3.8-5.3
			c-0.4-3,1.7-3.9,1.1-6.9c-0.5-2.3-5.1-5.8-5.4-9.2c-0.3-3.1,0.9-6.3,5.3-7.6c3.3-1,7.6,3.7,8.1,7.2s-1,4.1,0.3,5.7
			c1.3,1.6,3.7,4.2,4,7.2c0.4,3.5-1.5,5.9-1.5,7.4c0.1,1.5,1.9,3.1,2.3,5.7C278.8,374.2,278.1,378.9,273.7,378.7z"/>
		<g>
			<path class="st35" d="M277.8,389.5l-0.6-0.1c0.4-1.8,9.1-44.7,15.8-52.5l0.4,0.4C286.8,344.9,277.9,389,277.8,389.5z"/>
		</g>
		<g>
			<path class="st35" d="M275.3,388.5c0-0.3-1.9-32.2-9.2-44.1l0.5-0.3c7.4,12,9.3,44,9.3,44.3L275.3,388.5z"/>
		</g>
		<g>
			<g>
				<rect x="267.7" y="381.8" class="st37" width="18.7" height="3.1"/>
				<polygon class="st37" points="270,400.3 269,384.9 285.1,384.9 284.4,400.3 				"/>
				<polygon class="st11" points="269,384.9 269.2,387.7 285,385.8 285.1,384.9 				"/>
			</g>
		</g>
	</g>
	<polygon class="st11" points="316.6,400.3 316.6,410.8 128.9,410.8 128.9,168.2 141.2,156.1 141.2,400.3 	"/>
	<polygon class="st11" points="470.2,168.4 470.2,410.8 316.6,410.8 316.6,400.3 456.4,400.3 456.4,154.9 	"/>
	<polygon class="st11" points="470.2,77 470.2,150.5 456.4,136.8 434.6,115 434.6,77 	"/>
	<polygon class="st11" points="386.5,86.3 212.4,86.3 223.1,75.8 375.8,75.8 	"/>
	<rect x="300.9" y="238.9" class="st11" width="9.9" height="162.1"/>
	<rect x="316.3" y="78.7" class="st11" width="9.9" height="162.1"/>
	<g>
		<rect x="362.8" y="84.6" class="st11" width="2.1" height="24.2"/>
		<path class="st10" d="M379,109.8c0,0-6.8,0-15.2,0s-15.2,0-15.2,0c0-8.4,6.8-15.2,15.2-15.2S379,101.4,379,109.8z"/>
	</g>
	<rect x="217.8" y="239.7" class="st11" width="2.1" height="24.2"/>
	<path class="st10" d="M234,269.5c0,0-6.8,0-15.2,0c-8.4,0-15.2,0-15.2,0c0-8.4,6.8-15.2,15.2-15.2C227.2,254.3,234,261.1,234,269.5
		z"/>
	<rect x="384.6" y="241.9" class="st11" width="2.1" height="24.2"/>
	<path class="st11" d="M390.8,270.3c0,2.9-2.3,5.2-5.2,5.2s-5.2-2.3-5.2-5.2c0-2.9,2.3-5.2,5.2-5.2S390.8,267.5,390.8,270.3z"/>
	<path class="st11" d="M388.2,260.2c-0.6-1.4-4.3-1.2-4.8,0c-0.5,1.2-2.8,8.9-2.8,8.9h10.1C390.7,269.1,388.8,261.6,388.2,260.2z"/>
	<path class="st10" d="M389.7,271.9c0,1.7-1.8,3.1-4,3.1s-4-1.4-4-3.1c0-1.7,1.8-3.1,4-3.1S389.7,270.1,389.7,271.9z"/>
	<rect x="149.3" y="177.7" class="st38" width="6.6" height="54.4"/>
	<rect x="243.2" y="177.7" class="st38" width="6.6" height="54.4"/>
	<path class="st37" d="M252,222.7H147.4c0,0,0-27.5,0-36.5c0-9,104.6-8.2,104.6,0C252,194.4,252,222.7,252,222.7z"/>
	<rect x="147.4" y="213.1" class="st11" width="104.6" height="9.6"/>
	<path class="st6" d="M249.2,204.8h-99c-1.5,0-2.8,1.2-2.8,2.8v2.6c0,1.5,1.2,2.8,2.8,2.8h99c1.5,0,2.8-1.2,2.8-2.8v-2.6
		C252,206.1,250.7,204.8,249.2,204.8z"/>
	<path class="st10" d="M194.4,205.3h-36.1c-1.9,0-3.4-1.5-3.4-3.4l0,0c0-1.9,1.5-3.4,3.4-3.4h36.1c1.9,0,3.4,1.5,3.4,3.4l0,0
		C197.7,203.8,196.2,205.3,194.4,205.3z"/>
	<path class="st10" d="M242.5,205.3h-36.1c-1.9,0-3.4-1.5-3.4-3.4l0,0c0-1.9,1.5-3.4,3.4-3.4h36.1c1.9,0,3.4,1.5,3.4,3.4l0,0
		C245.9,203.8,244.4,205.3,242.5,205.3z"/>
	<g>
		<path class="st46" d="M193.7,189.5l-3.2,15.9h0c-0.6-0.3-1-0.8-1.2-1.4l2.7-13.7C192.4,189.9,193,189.6,193.7,189.5z"/>
		<polygon class="st46" points="197.2,190.1 194,205.7 192,205.6 195.2,189.7 		"/>
		<polygon class="st46" points="200.9,190.9 197.9,205.8 195.5,205.7 198.6,190.4 		"/>
		<polygon class="st46" points="204.3,191.6 201.4,206 199.4,205.9 202.3,191.2 		"/>
		<polygon class="st46" points="207.7,192.3 205,206.1 202.9,206 205.8,191.9 		"/>
		<path class="st46" d="M210.8,193.8l-2.4,11.7c-0.6,0.4-1.3,0.6-2,0.7l2.7-13.6C209.9,192.8,210.5,193.2,210.8,193.8z"/>
		<path class="st26" d="M195.2,189.7l-3.2,15.9l-0.9,0c-0.2,0-0.4-0.1-0.6-0.2l3.2-15.9c0.2,0,0.5,0,0.8,0L195.2,189.7z"/>
		<path class="st26" d="M192,190.4l-2.7,13.7c-0.2-0.4-0.2-1-0.1-1.5l2.3-11C191.5,191.1,191.7,190.7,192,190.4z"/>
		<polygon class="st26" points="198.6,190.4 195.5,205.7 194,205.7 197.2,190.1 		"/>
		<polygon class="st26" points="202.3,191.2 199.4,205.9 197.9,205.8 200.9,190.9 		"/>
		<polygon class="st26" points="205.8,191.9 202.9,206 201.4,206 204.3,191.6 		"/>
		<path class="st26" d="M209.2,192.6l-2.7,13.6c-0.3,0-0.6,0-0.8,0l-0.7,0l2.8-13.8L209.2,192.6
			C209.2,192.6,209.2,192.6,209.2,192.6z"/>
		<path class="st26" d="M211.1,195.6l-1.5,8.4c-0.1,0.6-0.6,1.1-1.2,1.5l2.4-11.7C211.1,194.3,211.3,195,211.1,195.6z"/>
	</g>
	<path class="st10" d="M441.6,218.8h-48.8c-2.5,0-4.5-1.5-4.5-3.4l0,0c0-1.9,2-3.4,4.5-3.4h48.8c2.5,0,4.5,1.5,4.5,3.4l0,0
		C446.2,217.3,444.1,218.8,441.6,218.8z"/>
	<path class="st57" d="M414.9,400.1h30.2c4.5,0,8.1-3.6,8.1-8.1v-98.7c0-4.5-3.6-8.1-8.1-8.1h-30.2c-4.5,0-8.1,3.6-8.1,8.1V392
		C406.8,396.5,410.5,400.1,414.9,400.1z"/>
	
		<rect x="406.8" y="336.8" transform="matrix(-1 -4.494905e-11 4.494905e-11 -1 860.0535 674.6418)" class="st11" width="46.4" height="1"/>
	<path class="st57" d="M246.4,400.8h-91.5c-3.4,0-6.1-3.3-6.1-7.3l0,0c0-4,2.7-7.3,6.1-7.3h91.5c3.4,0,6.1,3.3,6.1,7.3l0,0
		C252.5,397.5,249.8,400.8,246.4,400.8z"/>
	<path class="st57" d="M241.6,355.5v21.4c0,4.9-3.5,8.9-7.7,8.9h-27.7c-2.2,0-4.2-1.1-5.6-2.8c-1.4,1.8-3.4,2.8-5.7,2.8h-27.7
		c-4.3,0-7.7-4-7.7-8.9v-21.4c0-4.9,3.4-8.9,7.7-8.9h27.7c2.2,0,4.2,1.1,5.7,2.9c1.4-1.8,3.4-2.9,5.6-2.9h27.7
		C238.2,346.5,241.6,350.5,241.6,355.5z"/>
	
		<rect x="437.4" y="362.1" transform="matrix(-1 -4.710289e-11 4.710289e-11 -1 878.5535 762.1835)" class="st26" width="3.8" height="38"/>
	<path class="st26" d="M488.3,189.7c-2.2,0-4.5-0.9-6.2-2.6L325.4,30.4c-13.6-13.6-35.7-13.6-49.3,0L119.4,187.1
		c-3.4,3.4-9,3.4-12.4,0c-3.4-3.4-3.4-9,0-12.4L263.7,18c20.4-20.4,53.7-20.4,74.1,0l156.7,156.7c3.4,3.4,3.4,9,0,12.4
		C492.8,188.8,490.5,189.7,488.3,189.7z"/>
	<g>
		<path class="st57" d="M164.3,373.9c0.1,0.6,1.1,9.3,2.1,16.2l6.1-0.8l-5.6-14.3c0,0-0.5,0-1.3,0.1c0.5-1,0.8-2,0.8-3.2
			c0-3.8-3-6.9-6.8-6.9h0l0,0C161.9,367.5,163.5,370.6,164.3,373.9z"/>
		<path class="st57" d="M156.7,372.2c-1.7-2.8-3.9-5.1-6.4-7.2h-1.6c-3.7,0-6.8,3.1-6.8,6.9c0,2.9,1.8,5.4,4.2,6.4c0,0,0,0,0,0
			c3.6,1.6,3.2,13.8,3.2,13.8l11.7-1.4c-0.7-1.9-1.2-4.3-1.5-7.2C159.2,379.4,158.9,375.9,156.7,372.2z"/>
		<path class="st11" d="M164.3,373.9c-0.8-3.3-2.4-6.4-4.7-8.8l0,0h-9.3c2.5,2.1,4.7,4.4,6.4,7.2c2.3,3.7,2.5,7.2,2.9,11.3
			c0.3,2.9,0.8,1.8,1.5,3.7l5.4-0.7C165.4,379.6,164.4,374.4,164.3,373.9z"/>
	</g>
	<g>
		<path class="st57" d="M236.6,373.7c-0.1,0.6-1.1,9.3-2.1,16.2l-6.1-0.8l5.6-14.3c0,0,0.5,0,1.3,0.1c-0.5-1-0.8-2-0.8-3.2
			c0-3.8,3-6.9,6.8-6.9h0l0,0C238.9,367.4,237.4,370.5,236.6,373.7z"/>
		<path class="st57" d="M244.2,372.1c1.7-2.8,3.9-5.1,6.4-7.2h1.6c3.7,0,6.8,3.1,6.8,6.9c0,2.9-1.8,5.4-4.2,6.4c0,0,0,0,0,0
			c-3.6,1.6-3.2,13.8-3.2,13.8l-11.7-1.4c0.7-1.9,1.2-4.3,1.5-7.2C241.7,379.2,241.9,375.8,244.2,372.1z"/>
		<path class="st11" d="M236.6,373.7c0.8-3.3,2.4-6.4,4.7-8.8l0,0h9.3c-2.5,2.1-4.7,4.4-6.4,7.2c-2.3,3.7-2.5,7.2-2.9,11.3
			c-0.3,2.9-0.8,1.8-1.5,3.7l-5.4-0.7C235.4,379.5,236.4,374.3,236.6,373.7z"/>
	</g>
	<g>
		<defs>
			<path id="SVGID_00000103233088177670735220000006411534401854428844_" d="M241.6,355.5v21.4c0,4.9-3.5,8.9-7.7,8.9h-27.7
				c-2.2,0-4.2-1.1-5.6-2.8c-1.4,1.8-3.4,2.8-5.7,2.8h-27.7c-4.3,0-7.7-4-7.7-8.9v-21.4c0-4.9,3.4-8.9,7.7-8.9h27.7
				c2.2,0,4.2,1.1,5.7,2.9c1.4-1.8,3.4-2.9,5.6-2.9h27.7C238.2,346.5,241.6,350.5,241.6,355.5z"/>
		</defs>
		<clipPath id="SVGID_00000103250353681985142880000010349232365662296494_">
			<use xlink:href="#SVGID_00000103233088177670735220000006411534401854428844_"  style="overflow:visible;"/>
		</clipPath>
	</g>
	<path class="st37" d="M198,389h-35.7c-1.5,0-2.6-1.2-2.6-2.6v-2.8c0-1.5,1.2-2.6,2.6-2.6H198c1.5,0,2.6,1.2,2.6,2.6v2.8
		C200.6,387.9,199.4,389,198,389z"/>
	<path class="st37" d="M239,389h-35.7c-1.5,0-2.6-1.2-2.6-2.6v-2.8c0-1.5,1.2-2.6,2.6-2.6H239c1.5,0,2.6,1.2,2.6,2.6v2.8
		C241.6,387.9,240.4,389,239,389z"/>
	<rect x="259.2" y="115.7" class="st11" width="50.6" height="117.6"/>
	<rect x="263.1" y="119.9" class="st57" width="19.3" height="109.5"/>
	<rect x="286.6" y="119.9" class="st57" width="19.3" height="109.5"/>
	<rect x="237.6" y="83.2" class="st11" width="2.1" height="24.2"/>
	<path class="st10" d="M253.9,108.3c0,0-6.8,0-15.2,0c-8.4,0-15.2,0-15.2,0c0-8.4,6.8-15.2,15.2-15.2
		C247.1,93.1,253.9,99.9,253.9,108.3z"/>
	<rect x="387.7" y="217.9" class="st37" width="59.5" height="9.8"/>
	<rect x="386.7" y="181.2" class="st37" width="3.6" height="50.8"/>
	<rect x="395" y="181.2" class="st37" width="3.6" height="42.4"/>
	<rect x="403.3" y="181.2" class="st37" width="3.6" height="42.4"/>
	<rect x="411.6" y="181.2" class="st37" width="3.6" height="42.4"/>
	<rect x="419.9" y="181.2" class="st37" width="3.6" height="42.4"/>
	<rect x="428.2" y="181.2" class="st37" width="3.6" height="42.4"/>
	<rect x="436.4" y="181.2" class="st37" width="3.6" height="42.4"/>
	<rect x="444.7" y="181.2" class="st37" width="3.6" height="50.8"/>
	<rect x="383" y="180.1" class="st37" width="68.8" height="5.9"/>
	<g>
		<g>
			<polygon class="st38" points="330.5,400.3 333.4,400.3 334.2,326.7 328.9,326.7 			"/>
			
				<rect x="333.4" y="372" transform="matrix(-1 -4.501567e-11 4.501567e-11 -1 696.337 747.9814)" class="st38" width="29.5" height="3.9"/>
			
				<rect x="358.4" y="372.1" transform="matrix(-1 -4.589630e-11 4.589630e-11 -1 719.5908 772.4506)" class="st38" width="2.8" height="28.2"/>
		</g>
		
			<rect x="329.8" y="398.7" transform="matrix(-1 -4.632307e-11 4.632307e-11 -1 664.0265 799.0699)" class="st38" width="4.4" height="1.6"/>
		
			<rect x="357.6" y="398.7" transform="matrix(-1 -4.509383e-11 4.509383e-11 -1 719.5974 799.0699)" class="st38" width="4.4" height="1.6"/>
	</g>
	
		<rect x="344.1" y="362.1" transform="matrix(-1 -4.377222e-11 4.377222e-11 -1 691.9713 762.1835)" class="st26" width="3.8" height="38"/>
	<path class="st11" d="M339.4,363.1H447c1.8,0,3.3-1.5,3.3-3.3v-0.1c0-1.8-1.5-3.3-3.3-3.3H339.4c-1.8,0-3.3,1.5-3.3,3.3v0.1
		C336.1,361.6,337.5,363.1,339.4,363.1z"/>
	<g>
		<path class="st58" d="M360.7,227.9c0.1-7.5,1.7-23.5,1.8-31l-8.7,2.5c0.3,7.4,1.7,22.4,3.2,29.7L360.7,227.9z"/>
		<path class="st58" d="M362.2,227.5c-0.1,0-0.1-0.1-0.2-0.1c-0.2-0.1-0.4-0.2-0.6-0.3c-1.3-0.5-2.7-0.5-4-0.7c0,0-0.1,0-0.1,0
			c-0.1,0-0.1,0.1,0,0.2c0,0.1,0,0.4,0,0.7c0,0.2-0.1,0.4-0.2,0.5c0,0-0.2,0.2-0.2,0.2c0.2,0.8,2,1.6,4.3,2.2
			c2.3,0.6,4.6,0.3,5.2-0.3c0.1-0.1,0.1-0.1,0.1-0.2c0-0.1,0-0.1,0-0.2C364.9,228.9,363.5,228.2,362.2,227.5z"/>
		<path class="st33" d="M370.1,232.1c0-0.1-0.1-0.3-0.2-0.4c-0.1-0.2-0.3-0.4-0.5-0.5c-1.1-0.6-2.2-1.1-3.3-1.7c0,0.1,0,0.1,0,0.2
			c0,0.1-0.1,0.2-0.1,0.2c-0.5,0.6-2.9,0.8-5.2,0.3c-1-0.2-1.9-0.6-2.8-1.1c-0.3-0.2-0.7-0.4-1-0.7c-0.3-0.4-0.3-0.8-0.4-1.2
			c-0.2,0-0.3,0-0.4,0.2c-0.3,0.5-0.8,1.7-0.9,3.7c0,0,0,0.8,0.3,1c1,0.5,9.7,1.4,11.2,1.5c0.6,0,2-0.1,2-0.1
			C369.7,233.5,370.3,232.8,370.1,232.1z"/>
		<g>
			<path class="st58" d="M349.6,229c0,0.3,0.1,0,0.1,0.3l3.7-1.1c0.3-7.5,2.2-23.4,2.4-30.9l-8.7,2.3c0.2,7,1.2,20.9,2.4,28.5
				C349.5,228,349.6,228.9,349.6,229z"/>
		</g>
		<path class="st58" d="M354.9,228.6c-0.1,0-0.1-0.1-0.2-0.1c-0.2-0.1-0.4-0.2-0.6-0.3c-1.3-0.5-2.7-0.5-4-0.7c0,0-0.1,0-0.1,0
			c-0.1,0-0.1,0.1,0,0.2c0,0.1,0,0.4,0,0.7c0,0.2-0.1,0.4-0.2,0.5c0,0-0.2,0.2-0.2,0.2c0.2,0.8,2,1.6,4.3,2.2
			c2.3,0.6,4.6,0.3,5.2-0.3c0.1-0.1,0.1-0.1,0.1-0.2c0-0.1,0-0.1,0-0.2C357.6,230,356.3,229.3,354.9,228.6z"/>
		<path class="st33" d="M362.8,233.2c0-0.1-0.1-0.3-0.2-0.4c-0.1-0.2-0.3-0.4-0.5-0.5c-1.1-0.6-2.2-1.1-3.3-1.7c0,0.1,0,0.1,0,0.2
			c0,0.1-0.1,0.2-0.1,0.2c-0.5,0.6-2.9,0.8-5.2,0.3c-1-0.2-1.9-0.6-2.8-1.1c-0.3-0.2-0.7-0.4-1-0.7c-0.3-0.4-0.3-0.8-0.4-1.2
			c-0.2,0-0.3,0-0.4,0.2c-0.3,0.5-0.8,1.7-0.9,3.7c0,0,0,0.8,0.3,1c1,0.5,9.7,1.4,11.2,1.5c0.6,0,2-0.1,2-0.1
			C362.4,234.5,363,233.9,362.8,233.2z"/>
		<g>
			<g>
				<path class="st59" d="M357.6,135.6c0,0.1,0.1,0.1,0.1,0.2c0,0,0,0,0,0c0,0,0,0,0,0c0,0,0,0,0,0.1c0,0,0,0,0,0c0,0,0,0,0,0
					c0,0,0,0,0,0c0,0,0,0.1,0,0.1c-0.1,0.1-0.1,0.2-0.2,0.3c-0.1,0.1-0.1,0.1-0.2,0.2c-0.1,0.1-0.1,0.1-0.1,0.2c0,0.1,0,0.3,0.1,0.4
					c-0.2,0.1-0.3,0.2-0.3,0.3c0,0.1,0,0.2,0.1,0.2c0.1,0.1,0.2,0.3,0.1,0.5c0,0,0,0,0,0.1c0,0,0,0,0,0c0,0,0,0,0,0c0,0,0,0,0,0.1
					c0,0.1-0.1,0.2-0.1,0.3c0,0.2,0.1,0.4,0.2,0.5c0,0,0,0,0,0c0.1,0.1,0.1,0.1,0.2,0.2c0.1,0.1,0.1,0.1,0.2,0.2
					c0.5,0.4,1,0.7,1.6,0.8c0,0,0,0,0,0c0,0,0,0,0,0c0.1,0,0.6,0.1,0.7,0.1c0,0-0.1,0.5-0.1,0.5l-0.8,2.2c-0.1,0.2,4.3,0.1,4.4-0.2
					l1-1.1c0.2-0.7,0.4-1.4,0.8-1.4c1.7-0.2,3.8-0.3,4.8-1.9c1.8-2.7,1.1-6.5-1.7-8.3c-0.4-0.2-1-0.5-1.5-0.7
					c-0.2-0.1-0.4-0.1-0.6-0.2c-0.5-0.1-1.1-0.2-1.7-0.2c-0.1,0-0.3,0-0.4,0.1c0,0-0.1,0-0.1,0c0,0,0,0,0,0c0,0-0.1,0-0.1,0
					c0,0-0.1,0-0.1,0c0,0-0.1,0-0.1,0c-0.1,0-0.2,0.1-0.4,0.1c0,0-0.1,0-0.1,0c0,0-0.1,0-0.1,0c0,0,0,0,0,0c0,0-0.1,0-0.1,0
					c0,0,0,0,0,0c0,0-0.1,0-0.1,0c0,0-0.1,0-0.1,0c0,0-0.1,0-0.1,0.1c0,0-0.1,0-0.1,0.1c0,0,0,0,0,0c-0.4,0.2-0.7,0.4-1.1,0.7
					c0,0,0,0,0,0c-0.2,0.2-0.5,0.4-0.7,0.6c-0.3,0.3-0.6,0.7-0.8,1c-0.1,0.2-0.2,0.3-0.3,0.5c0,0,0,0,0,0c-0.1,0.1-0.1,0.3-0.1,0.4
					c0,0,0,0,0,0c0,0,0,0.1,0,0.1c0,0.2-0.1,0.4-0.2,0.6c-0.1,0.1-0.1,0.2-0.2,0.2c-0.4,0.4-0.9,0.6-1.4,0.8
					C357.5,135,357.4,135.3,357.6,135.6z"/>
				<g>
					<path class="st20" d="M364.2,139.3c0,0-1.1,1.2-1.6,1.5c-1.4,0.9-1.8,0.9-2.9,1.1l0.5-1.5C361.9,140.5,364.2,139.4,364.2,139.3
						z"/>
				</g>
				<path class="st60" d="M363.6,132.8c-1.2,1.7-1.3,3.7-0.2,4.4c0.2,0.1,0.4,0.2,0.6,0.2c0.5,0.1,0.9,0.3,1.1,0.7c0,0,0,0,0,0
					c0.2,0.3-1.3,1-1.4,1.4c-0.1,0.7,0.1,1.5,1,1.9c0.2,0.1,0.9,0,1.1,0c0.2,0,0.4-0.1,0.5-0.1c1.1-0.2,2.2-0.8,3.1-1.7
					c0.3-0.3,0.5-0.6,0.8-0.9c1.9-2.8,1.1-6.6-1.7-8.5c-0.4-0.2-1-0.5-1.5-0.7c-0.4-0.1-0.7-0.3-1.1-0.3
					C365.1,130.5,364.2,131.9,363.6,132.8z"/>
				<path class="st60" d="M360,132.9c0.2,0.1,0.3,0.3,0.5,0.4c0.4,0.4,0.7,0.8,0.9,1.2c-0.1-0.1-0.2-0.2-0.3-0.3
					c-0.3-0.3-0.6-0.5-1-0.7C360,133.4,359.9,133.2,360,132.9C360,132.9,360,132.9,360,132.9z"/>
				<path class="st59" d="M364,137.6c0.4-0.5,1.1-0.5,1.5-0.1c0.4,0.4,0.3,1-0.1,1.5l-0.1,0.1c-0.7,0.8-1.8,1-2.6,0.5c0,0,0,0,0,0
					c-0.4-0.2-0.4-0.8,0-1.1L364,137.6z"/>
				<path class="st60" d="M363.1,134.1c0.2-0.4,0.4-0.7,0.7-1c1.4-1.5,3.4-2.3,5.3-2.1c0,0,0-0.1-0.1-0.1c-0.4-0.6-1-1-1.6-1.3
					c-0.3-0.1-0.6-0.3-0.9-0.4c0,0,0,0,0,0c-1.7-0.5-3.6-0.3-5.2,0.6c-0.1,0-0.2,0.1-0.3,0.2c-0.7,0.5-0.9,1.5-0.3,2.2
					C361.5,132.8,362.3,133.5,363.1,134.1z"/>
				<g>
					<path class="st61" d="M360.5,134.8C360.4,134.8,360.4,134.8,360.5,134.8l-0.3-0.4c0-0.1-0.1-0.2-0.2-0.2
						c-0.1-0.1-0.1-0.1-0.2-0.2c0,0-0.1-0.1-0.1-0.1c0,0-0.1-0.1,0-0.2c0,0,0.1-0.1,0.2,0c0,0,0.1,0.1,0.1,0.1
						c0.1,0.1,0.1,0.1,0.2,0.2c0.1,0.1,0.2,0.2,0.2,0.3l0.2,0.4C360.6,134.7,360.6,134.8,360.5,134.8
						C360.5,134.8,360.5,134.8,360.5,134.8z"/>
				</g>
				<path class="st61" d="M360.1,134c0.1,0.1,0.2,0.2,0.1,0.4c-0.1,0.2-0.3,0.3-0.4,0.3C359.7,134.6,359.9,134.3,360.1,134z"/>
			</g>
			<g>
				<path class="st58" d="M347.2,135.9c-0.3-1.1,0-2.9,0.5-3.9c-1,1.4-3.8,6.1-4.3,7.8c0.3,1,2.3,2.4,3.3,2.6c1,0.2,2.4-0.2,3.4-0.4
					c0.1-0.3,0.2-1.2,0.3-2.1C348.9,139.4,347.7,138,347.2,135.9z"/>
				<path class="st20" d="M347.8,131.9c0,0-0.1,0.1-0.1,0.1c-0.5,1.1-0.8,2.9-0.5,3.9c0.5,2,1.7,3.4,3.1,3.9c0.1-1,0.3-2.1,0.3-2.5
					C351,135.2,348.3,132.6,347.8,131.9z"/>
			</g>
			<path class="st32" d="M341.7,139.5c-2.1,1.6-2.9,4.4-2.7,7.1s1.2,5.1,2.3,7.6c1.2,2.8,2.4,5.6,3.6,8.4c1.9,4.6-0.7,8-2.6,12.1
				c-1.7,3.6-3.2,7.2-4.4,11c-0.5,1.7-4.8,20.5-4.7,20.5c0,0,0.1,0-0.1,0.5c14,6.4,30.8,5.6,44.5-1.5c0,0,0-0.1,0-0.1
				c-2.4-14.5-7.5-28.5-14.8-40.7c-2.5-2.6-5.2-5.7-5.3-9.4c0-1.5,0.4-2.9,0.3-4.4c-0.1-2.3-1.2-4.4-2.6-6.1s-3.3-3-5-4.5
				c-2.1,0.8-4.6-0.2-5.6-2.3C343.4,138.4,342.3,139.1,341.7,139.5z"/>
			<path class="st58" d="M358,133.6c-0.5-1-0.9-1.7-1-2.1c-0.1-0.3-0.2-0.7-0.1-1c0.6-2.1-0.6-4.8-0.6-4.8c-1.9,0.1-3.8,0.2-5.6,0.7
				c-1.1,0.3-2.3,0.7-3.2,1.5c-0.6,0.5-1.1,1.2-1.3,2c-0.2,0.7-0.1,1.5,0.1,2.3c0.2,0.8,0.6,1.6,1.1,2.3c0.5,0.7,1,1.4,1.6,2
				c0.5,0.5,1.1,1,1.7,1.5c0.7,0.5,1.5,0.9,2.4,1.2c0.7,0.2,1.5,0.3,2.3,0.2c0.5-0.1,0.5-1.9,0.5-1.9c0-0.2,0.1-0.5,0.3-0.5
				c0,0,0.2-0.1,0.2-0.1c0.3-0.2,0-0.4-0.2-0.5c-0.2-0.1-0.3-0.1-0.5-0.2c-0.1,0-0.2-0.1-0.3-0.2c0.2,0,0.7,0,1,0.1
				c0.3,0,0.5-0.2,0.5-0.4c0-0.2-0.1-0.5,0-0.7c0.1-0.4,0.4-0.5,0.7-0.6C358.1,134,358,133.6,358,133.6z"/>
			<path class="st62" d="M334.9,150.6c-2.6-3.8-3.6-11.5,0-14.4c1.9-1.5,2.3-3.7,4.2-5.3c2.8-2.5,3.8-6.7,6.8-8.8
				c2.8-2,6.8-1.9,9.5,0.2c1,0.8,1.2,1.2,1.4,2.4c0.3,1.9-1.1,2.2-2.8,2.9c-1.7,0.7-2.8,1.7-4.3,2.8c-2.3,1.8-2.7,5.1-4.1,7.7
				c-1.3,2.4-4,4.6-3.9,7.4c0.3,7.6-3,9.9-3.5,10C335.3,155,336.3,152.7,334.9,150.6z"/>
			<path class="st58" d="M347,132.8c0.7,0.4,1.6-0.1,2.1-1c0.5-0.9,0.3-1.9-0.3-2.2c-0.7-0.4-1.6,0.1-2.1,1
				C346.2,131.4,346.4,132.4,347,132.8z"/>
			<path class="st62" d="M345.4,140.2c1.1-0.8,1.4-1.7,1.5-2.8c0.1-1.5,1.6-2.5,2-3.2c1.3-2.7,0.2-3.1,2.5-7.7l0,0
				c-3.1,2.9-1.9,5.2-2.8,7.6c-0.6,1.3-1.9,2-1.8,3.3c0,1-0.3,1.9-1.3,2.7L345.4,140.2z"/>
			<g>
				<defs>
					<path id="SVGID_00000132806405479813877560000013465371094736841344_" d="M358,133.6c-0.5-1-0.9-1.7-1-2.1
						c-0.1-0.3-0.2-0.7-0.1-1c0.6-2.1-0.6-4.8-0.6-4.8c-1.9,0.1-3.8,0.2-5.6,0.7c-1.1,0.3-2.3,0.7-3.2,1.5c-0.6,0.5-1.1,1.2-1.3,2
						c-0.2,0.7-0.1,1.5,0.1,2.3c0.2,0.8,0.6,1.6,1.1,2.3c0.5,0.7,1,1.4,1.6,2c0.5,0.5,1.1,1,1.7,1.5c0.7,0.5,1.5,0.9,2.4,1.2
						c0.7,0.2,1.5,0.3,2.3,0.2c0.5-0.1,0.5-1.9,0.5-1.9c0-0.2,0.1-0.5,0.3-0.5c0,0,0.2-0.1,0.2-0.1c0.3-0.2,0-0.4-0.2-0.5
						c-0.2-0.1-0.3-0.1-0.5-0.2c-0.1,0-0.2-0.1-0.3-0.2c0.2,0,0.7,0,1,0.1c0.3,0,0.5-0.2,0.5-0.4c0-0.2-0.1-0.5,0-0.7
						c0.1-0.4,0.6-0.4,0.9-0.5C358.3,134,358,133.6,358,133.6z"/>
				</defs>
				<clipPath id="SVGID_00000124135517739555247880000013926296892002089657_">
					<use xlink:href="#SVGID_00000132806405479813877560000013465371094736841344_"  style="overflow:visible;"/>
				</clipPath>
			</g>
			<path class="st59" d="M352.9,162.2c-1.6,0.2-2.8,1.9-2.9,3.6c-0.1,1.7,0.6,3.4,1.5,4.7c1,1.4,2.2,2.5,3.3,3.8s2.1,2.7,2.8,4.2
				c0.2,1.1-0.3,2.2-1.2,2.9c-0.3,0.4-0.3,0.9-0.2,1.3c0.2,0.4,0.6,0.7,1,0.8c1-0.8,1.9-1.8,2.6-3c0.7-0.2,1.4-0.5,1.6-1.2
				c0.1-0.4-0.1-0.9-0.4-1.2c-0.3-0.3-0.7-0.5-1.1-0.9c-0.2-1.7-0.4-3.4-1-5.1c-0.6-1.6-1.5-3.1-2.9-4c2.5,0.5,5.1-0.1,7.3-1.6
				c-2.1-1.8-4.3-3.4-6.4-5.2C355.7,161.8,354.4,162,352.9,162.2z"/>
			<g>
				<defs>
					<path id="SVGID_00000008115220402505399050000007201415057022209446_" d="M358,133.6c-0.5-1-0.9-1.7-1-2.1
						c-0.1-0.3-0.2-0.7-0.1-1c0.6-2.1-0.6-4.8-0.6-4.8c-1.9,0.1-3.8,0.2-5.6,0.7c-1.1,0.3-2.3,0.7-3.2,1.5c-0.6,0.5-1.1,1.2-1.3,2
						c-0.2,0.7-0.1,1.5,0.1,2.3c0.2,0.8,0.6,1.6,1.1,2.3c0.5,0.7,1,1.4,1.6,2c0.5,0.5,1.1,1,1.7,1.5c0.7,0.5,1.5,0.9,2.4,1.2
						c0.7,0.2,1.5,0.3,2.3,0.2c0.5-0.1,0.5-1.9,0.5-1.9c0-0.2,0.1-0.5,0.3-0.5c0,0,0.2-0.1,0.2-0.1c0.3-0.2,0-0.4-0.2-0.5
						c-0.2-0.1-0.3-0.1-0.5-0.2c-0.1,0-0.2-0.1-0.3-0.2c0.2,0,0.7,0,1,0.1c0.3,0,0.5-0.2,0.5-0.4c0-0.2-0.1-0.5,0-0.7
						c0.1-0.4,0.4-0.5,0.7-0.6C358.1,134,358,133.6,358,133.6z"/>
				</defs>
				<clipPath id="SVGID_00000020378724258181141510000015050120134812268697_">
					<use xlink:href="#SVGID_00000008115220402505399050000007201415057022209446_"  style="overflow:visible;"/>
				</clipPath>
				<path style="clip-path:url(#SVGID_00000020378724258181141510000015050120134812268697_);fill:#CB8D50;" d="M356.4,134.3
					l1.1-0.1c0,0-0.2,0.2-0.5,0.3C356.6,134.5,356.4,134.3,356.4,134.3z"/>
			</g>
			<path class="st33" d="M353.9,162.5c0.4-1,0.8-2.1,1.3-3.1c0.3-0.7,0.6-1.4,0.7-2.2c0.1-0.8,0.1-1.6-0.1-2.3
				c-1.1-4.3,0.3-9.2,3.6-12.1c1.8,0.1,3.6-0.3,5.2-0.9c0.8,2.6,2.2,5,3.6,7.3c1.3,2.4,2.7,4.8,3.3,7.5c0.6,2.7,0.5,5.7-0.9,8
				c-1.4,2.3-4.3,3.8-6.8,2.9c-1.6-0.6-2.9-2-4.5-2.5c-0.9-0.3-1.9-0.3-2.9-0.6C355.5,164.2,354.6,163.5,353.9,162.5z"/>
			<path class="st59" d="M371.1,163.1c-0.1,0-0.1,0-0.2,0l0,0c0,0-2.6-0.6-3,0c-0.2,0.2,0.4,0.4,0.4,0.4s0.4,0.1,0.8,0.2
				c0,0,0,0,0,0c-0.1,0.1-0.2,0.1-0.3,0.1c-0.9,0-3.2-0.1-3.2-0.1c-0.3,0-0.5,0.2-0.5,0.4c0,0.1,0,0.1,0.1,0.2
				c-0.2,0.1-0.4,0.2-0.4,0.4c0,0.1,0.1,0.2,0.2,0.3c0,0,0,0,0,0c-0.2,0.1-0.4,0.2-0.4,0.4c0,0.1,0.1,0.2,0.1,0.3
				c-0.1,0.1-0.2,0.2-0.2,0.3c0,0.1,0.1,0.2,0.2,0.3c0,0,1.8,0.8,2.7,0.8c1.8,0.2,3.8-1.3,3.8-3.2
				C371.5,163.5,371.3,163.2,371.1,163.1z"/>
			<path class="st58" d="M371.5,134.3c-0.1-0.2-0.2-0.4-0.4-0.4c-0.1,0-0.2,0-0.3,0.1c-0.2,0.2-0.3,0.2-0.2,0.7
				c0.1,0.6-0.1,1.5-0.1,2.1c-0.1,0.6-0.4,1.1-0.7,1.6c-0.2,0.3-0.4,1-0.9,1.1c-0.7,0.1-1.2-0.2-1-1c0.1-0.3,0.2-0.8,0.2-1.1
				c0-0.2,0-0.6-0.3-0.5c-0.2,0.1-0.3,0.2-0.3,0.4c-0.2,0.4-0.6,1.2-0.7,1.7c-0.2,0.9-0.3,1-0.3,1.7c0.1,0.7,0.1,1,0.1,1.7
				c-0.1,0.8-0.4,1.5-0.8,2.2c0,0,0,0,0,0c0.7,0.3,1.7,0.2,2.5,0.3c0.6-1,1.8-2.5,2.2-3.7c0.3-0.7,0.7-1.4,1-2.1
				c0.3-0.8,0.2-1.5,0.2-2.3C371.8,135.9,371.9,135,371.5,134.3z"/>
			<g>
				<path class="st61" d="M356.4,131C356.4,131,356.4,131,356.4,131c-0.4-0.3-0.8-0.2-1.5,0c-0.1,0-0.1,0-0.1-0.1
					c0-0.1,0-0.1,0.1-0.1c0.7-0.2,1.2-0.3,1.6,0C356.5,130.9,356.5,130.9,356.4,131C356.5,131,356.4,131,356.4,131z"/>
			</g>
			<path class="st61" d="M356.1,130.8c-0.2-0.1-0.3,0-0.4,0.2c-0.1,0.2,0,0.4,0.1,0.5C356,131.4,356.1,131.1,356.1,130.8z"/>
			<path class="st62" d="M356.8,130.1c0,0,0-0.1-0.1-0.1c-0.3-0.4-1-0.4-1.4-0.3c-0.3,0-0.7,0.2-1,0.4c-0.2,0.2-0.2,0.2-0.1,0.2
				c0.4-0.2,0.8-0.2,1.3-0.2c0.3,0,1,0.4,1.2,0.2C356.8,130.2,356.8,130.2,356.8,130.1z"/>
			<g>
				<path class="st58" d="M367.3,135.8c0.1,0,0.2,0,0.3,0c0.4,0.1,0.5,0.6,0.6,0.9c0.1,0.8-0.3,1.8-0.1,2.6c0,0,0,0.2,0.1,0.3
					l0.8,0.2l2-0.1c0,0,0.1,0.5-0.3,1c-0.4,0.5-1.5,2.6-1.5,2.6s-0.4,0.5-0.3,1.5c0.1,1-0.1,4.2-0.1,4.2l-3-1.8l0.4-2.2
					c0,0,0.1-0.9,0.1-1.3c-0.1-0.4-0.5-1.8,0.4-4.2c0.2-0.8,0.2-2.4,0.2-2.7C366.7,136.4,366.9,135.9,367.3,135.8z"/>
				<path class="st64" d="M367.9,136.5c0-0.1,0-0.6-0.5-0.5c-0.2,0-0.4,0.2-0.4,0.5c0,0.1,0,0.3,0,0.3c0.1,0.2,0.2,0.3,0.4,0.3
					c0.2,0,0.4-0.1,0.5-0.3C367.9,136.7,367.9,136.6,367.9,136.5z"/>
			</g>
			<path class="st32" d="M347,150.3c-1.4-1.4-2.7-3-3-4.9c-0.3-1.9,0.8-4.1,2.6-4.3c1.4-0.1,2.7,0.9,3.8,1.9
				c3.7,3.3,7.3,6.8,10.9,10.2c0.4,0.2,0.8,0.1,1.1-0.2c0.3-0.3,0.5-0.7,0.6-1.1c0.9-2.7,0.9-5.7,0.8-8.6c1.8-1.4,4.4-1.6,6.5-0.3
				c0.1,5.8-0.8,11.5-2.5,17c-1,1.3-2.2,2.6-3.8,2.9c-1.3,0.3-2.7-0.2-3.8-0.9c-1.2-0.7-4.3-3.1-5.2-4.1
				C351.9,154.8,350.3,153.6,347,150.3z"/>
			<path class="st59" d="M350,146.7c-0.1-0.6,0-1.2-0.2-2c-0.1-0.4-0.3-0.8-0.6-1.1c-0.1-0.2-0.3-0.3-0.4-0.4
				c-0.2-0.2-0.4-0.4-0.6-0.4c0,0,0,0,0,0c-0.2,0-0.4,0.1-0.4,0.3c0,0,0,0,0,0c-0.3,0-0.5,0.2-0.5,0.4c0,0,0,0-0.1,0
				c-0.2,0-0.4,0.2-0.5,0.4c0,0,0,0.1,0,0.1c0,0-0.5,0.1-0.3,0.6c0.2,0.4,0.4,0.8,0.7,1.2c0.5,0.9,1.1,1.2,1.8,2c0,0,1.6,1,1.7,0.1
				C350.5,147.8,350,146.8,350,146.7z"/>
			<path class="st33" d="M348.7,147.9c0.4,1.3,1,2.4,1.6,3.6c0.7,1.5,1.6,3.1,2.9,4.3c1.2,1.1,3.4,2.4,4.8,1
				c2.6-2.5,4.8-6.1,4.6-9.8c-0.1-1.4-0.9-2.7-2.4-2.5c-1.9,0.2-2.7,1.4-3.7,2.9c-0.4,0.6-0.8,1.3-1.2,1.9l-0.7,1.5l-4.3-3.9
				L348.7,147.9z"/>
		</g>
	</g>
</g>
<path class="st34" d="M96.1,417.8c0.1,0.1,0.1,0.2,0.2,0.3l0,0l-3.2-0.7c0.2-0.3,0.5-0.7,0.7-1.1c2.8-5.2,6-10.2,9.8-14.7
	c2.9-3.4,6-6.6,10.1-8.7c6.2-3.3,12.8-5.1,19.7-6.3c1.2-0.2,2.5-0.3,3.7-0.4c0.1,0.1,0.1,0.3,0.2,0.4
	C122,395.1,108.9,406.3,96.1,417.8z"/>
<path class="st10" d="M65.2,404c6.1,2.5,12.3,4.9,18.5,7.4l1.9-0.2c-0.2-0.3-0.3-0.6-0.5-0.9c-2.9-3.5-6.2-6.6-10.1-9.1
	c-6.1-3.9-12.7-5.3-19.9-3.9c-5.1,1-9.7,3.3-14,6.1c-0.3,0.2-0.4,0.5-0.7,0.8c3.9-0.6,7.7-1.2,11.5-1.7
	C56.3,402,60.8,402.2,65.2,404z"/>
<path class="st10" d="M86.2,386c0.4,4.1,1.1,8.2,1.8,12.4c0.7,4.1,1.4,8.2,2.1,12.3c0,0.2,0,0.3,0,0.5l2.7,0
	c-0.1-0.6-0.2-1.2-0.1-1.7c0.8-4.3,1.9-8.5,2.6-12.8c1.3-8.2,1.6-16.5-0.6-24.7c-2.1-7.4-4.5-14.6-6.8-21.9
	c-0.1-0.4-0.7-0.7-1.1-1.1c-0.3,0.4-0.7,0.9-0.7,1.3c-0.2,4.1-0.3,8.1-0.4,12.2c-0.1,2.8-0.2,5.5-0.2,8.3
	C85.6,375.8,85.8,380.9,86.2,386z"/>
<path class="st10" d="M93.4,411.1l2.7,0c0.2-0.4,0.4-0.8,0.6-1.2c4-6.2,8.2-12.3,11.9-18.6c5-8.4,11-15.8,18.4-22.1
	c0.2-0.2,0.4-0.4,0.5-0.7c-0.1-0.1-0.2-0.3-0.3-0.4c-4.6,2.5-9.2,4.9-13.8,7.4c-6.4,3.6-10.9,8.8-13.2,15.8
	c-2.1,6.2-4,12.3-6.1,18.5C94.1,410.2,93.7,410.7,93.4,411.1z"/>
<path class="st34" d="M86.2,410.9c-0.1,0.1-0.2,0.2-0.3,0.3l0,0l3.3-0.1c-0.2-0.4-0.3-0.8-0.5-1.2c-1.6-5.7-3.8-11.2-6.6-16.4
	c-2.1-4-4.6-7.6-8.1-10.5c-5.4-4.5-11.5-7.6-18-10.2c-1.2-0.5-2.4-0.8-3.6-1.1c-0.1,0.1-0.2,0.2-0.2,0.4
	C65.4,383.4,75.9,397.1,86.2,410.9z"/>
<path class="st35" d="M497.1,375.4c-10.6,5.4-17.2,8-20,10.8c-2.8,2.8-9.4,10.8-5.6,16.6c3.8,5.8,5,10.4,15.6,9.9
	c10.6-0.5,14.9-2,23.5-1.2c8.6,0.8,16.2-3.1,17.9-4.9c1.8-1.8,7.1-10.4,0-18C521.6,381,506.5,370.6,497.1,375.4z"/>
<path class="st35" d="M513.8,370.1c7.3-4.1,15.3-4.3,25.8,2.2c10.4,6.5,12.6,10.8,13.3,13.7c0.6,2.9,5.4,4.7,4.1,10.5
	c-1.3,5.8-13.6,11.9-21.5,12.6c-8,0.7-9.6,0-19.1-1.5c-9.5-1.5-17-3.7-20.5-10.9C492.3,389.5,506,374.4,513.8,370.1z"/>
<path class="st35" d="M513.4,379.4c-16.5,5.3-26.7,7.9-31,10.7c-4.3,2.8-14.6,10.8-8.7,16.6c5.8,5.8,7.8,10.4,24.3,10
	c16.5-0.4,23.1-1.9,36.5-1.1c13.3,0.8,25.1-3,27.9-4.8c2.8-1.8,11-10.4,0.1-18C551.5,385.2,528,374.7,513.4,379.4z"/>
<path class="st10" d="M556.3,395.7c4.2-2.1,8.8-2.2,14.8,1.1c6,3.3,7.3,5.5,7.7,6.9c0.4,1.5,3.1,2.4,2.4,5.3
	c-0.7,2.9-7.8,6-12.4,6.4c-4.6,0.4-5.5,0-11-0.7c-5.4-0.7-9.8-1.8-11.8-5.5C544,405.6,551.8,397.9,556.3,395.7z"/>
<path class="st10" d="M573.3,399.4c3.3-1.6,7-1.7,11.8,0.9c4.8,2.6,5.8,4.3,6.1,5.5c0.3,1.2,2.5,1.9,1.9,4.2
	c-0.6,2.3-6.2,4.8-9.8,5.1c-3.6,0.3-4.4,0-8.7-0.6c-4.3-0.6-7.8-1.4-9.4-4.3C563.5,407.2,569.7,401.1,573.3,399.4z"/>
<path class="st10" d="M562.3,388.5c4.2-2.1,8.8-2.2,14.8,1.1c6,3.3,7.3,5.5,7.7,6.9c0.4,1.5,3.1,2.4,2.4,5.3
	c-0.7,2.9-7.8,6-12.4,6.4c-4.6,0.4-5.5,0-11-0.7c-5.4-0.7-9.8-1.8-11.8-5.5S557.9,390.7,562.3,388.5z"/>
<path class="st34" d="M589.6,409.6H9.9c-3.3,0-6,2.7-6,6l0,0c0,3.3,2.7,6,6,6h579.7c3.3,0,6-2.7,6-6l0,0
	C595.6,412.3,592.9,409.6,589.6,409.6z"/>
</svg>
